<svg width="26" height="20" fill="none" xmlns="http://www.w3.org/2000/svg"><path d="M22.96 4.163v-.355A2.969 2.969 0 0019.997.842H2.966A2.969 2.969 0 000 3.808v.355h22.96zm-9.395 9.539c0-1.538.495-3 1.408-4.205H0v4.136a2.969 2.969 0 002.965 2.965h11.226a6.958 6.958 0 01-.626-2.896zm-2.085-.899H8.921V11.28h2.56v1.523zM3.415 11.28h3.983v1.523H3.415V11.28zm13.14-3.307a6.928 6.928 0 013.99-1.25 6.98 6.98 0 012.416.428V5.687H0v2.286h16.555zM26 13.702a5.456 5.456 0 10-10.911 0 5.456 5.456 0 0010.911 0zm-4.72 2.914v.62h-1.524v-.615c-.46-.156-.837-.43-1.205-.7l.9-1.23c.494.362.747.536 1.093.536.196 0 .355-.093.415-.243.072-.182-.03-.35-.273-.448 0 0-1.089-.364-1.592-.877-.422-.43-.557-1.037-.422-1.614a1.78 1.78 0 011.084-1.263v-.615h1.524v.59c.387.107.714.266.902.368l-.726 1.339c-.482-.262-.926-.34-1.098-.281-.168.057-.193.166-.203.207-.013.059-.02.148.073.252.09.1 1.032.483 1.032.483 1.018.414 1.497 1.454 1.115 2.42a1.895 1.895 0 01-1.095 1.071z" fill="#B1B1B1"/></svg>