<svg width="15" height="15" fill="none" xmlns="http://www.w3.org/2000/svg"><g clip-path="url(#clip0_20_740)"><path d="M14.587 4.163l-1.35 1.35a.352.352 0 01-.499 0l-3.252-3.25a.352.352 0 010-.498l1.351-1.35a1.41 1.41 0 011.99 0l1.76 1.76c.55.548.55 1.438 0 1.99zm-6.26-1.24L.632 10.618l-.621 3.56a.704.704 0 00.814.814l3.56-.624 7.693-7.693a.352.352 0 000-.498L8.827 2.924a.355.355 0 00-.5 0zM3.635 9.959a.408.408 0 010-.58l4.512-4.512a.408.408 0 01.58 0 .408.408 0 010 .58L4.216 9.958a.409.409 0 01-.58 0zm-1.058 2.464h1.407v1.063l-1.89.332-.911-.912.33-1.89h1.064v1.407z" fill="#fff"/></g><defs><clipPath id="clip0_20_740"><path fill="#fff" d="M0 0h15v15H0z"/></clipPath></defs></svg>