<svg width="25" height="25" fill="none" xmlns="http://www.w3.org/2000/svg"><g clip-path="url(#clip0_20_717)" fill="#B1B1B1"><path d="M4.811 16.668c.252.15.468.344.64.57h3.255V14.08l-1.543-.957a.732.732 0 11.771-1.245l1.504.932 1.311-.813C8.134 8.413 8.735 3.332 12.216.465 6.482-1.456.468 2.814.44 8.945a8.933 8.933 0 004.37 7.723zm1.098 2.034h6.933v1.66H5.909v-1.66zm4.261-4.622v3.157h3.12a2.12 2.12 0 01.613-.547 8.954 8.954 0 001.818-1.417 8.439 8.439 0 01-3.996-2.157l-1.554.965z"/><path d="M17.578.002c-3.84 0-6.982 3.174-6.982 7.031 0 3.628 2.785 6.632 6.356 6.953 4.133.37 7.607-2.907 7.607-6.953 0-3.85-3.132-7.03-6.981-7.03zm.733 10.205v.153a.732.732 0 11-1.465 0v-.07c-.337-.06-.645-.185-1.035-.44a.732.732 0 11.802-1.226c.357.234.473.252.96.248.472-.003.66-.372.696-.59.033-.196-.004-.456-.367-.585-.608-.215-1.231-.461-1.673-.808-1.006-.789-.702-2.59.617-3.07v-.106a.732.732 0 011.465 0v.04c.36.102.651.287.851.49a.732.732 0 01-1.044 1.027c-.04-.04-.266-.228-.755-.08-.194.058-.247.26-.258.32-.024.127.01.213.028.227.276.216.79.414 1.257.58 1.93.682 1.695 3.249-.079 3.89zM7.08 22.705A2.297 2.297 0 009.376 25a2.297 2.297 0 002.295-2.295v-.878H7.08v.878z"/></g><defs><clipPath id="clip0_20_717"><path fill="#fff" d="M0 0h25v25H0z"/></clipPath></defs></svg>